<?xml version="1.0" encoding="UTF-8" standalone="no"?>
<!DOCTYPE svg PUBLIC "-//W3C//DTD SVG 1.1//EN" "http://www.w3.org/Graphics/SVG/1.1/DTD/svg11.dtd">
<svg width="100%" height="100%" viewBox="0 0 500 500" version="1.1" xmlns="http://www.w3.org/2000/svg" xmlns:xlink="http://www.w3.org/1999/xlink" xml:space="preserve" xmlns:serif="http://www.serif.com/" style="fill-rule:evenodd;clip-rule:evenodd;stroke-linejoin:round;stroke-miterlimit:2;">
    <g transform="matrix(-0.5,-0.866025,0.866025,-0.5,99.3874,693.881)">
        <path d="M248.5,422.731L13.575,454.75L158.767,267.308L176.6,277.604C170.264,289.312 166.666,302.708 166.666,316.935C166.666,362.27 203.197,399.17 248.5,399.969L248.5,422.731Z" style="fill:rgb(73,160,120);"/>
    </g>
    <g transform="matrix(-0.5,-0.866025,0.866025,-0.5,99.3874,693.881)">
        <path d="M251.5,399.969C296.803,399.17 333.334,362.27 333.334,316.935C333.334,302.708 329.736,289.312 323.4,277.604L341.233,267.308L486.425,454.75L251.5,422.731L251.5,399.969Z" style="fill:rgb(220,225,222);"/>
    </g>
    <g transform="matrix(-0.5,-0.866025,0.866025,-0.5,99.3874,693.881)">
        <path d="M160.267,264.71L250,45.25L339.733,264.71L321.925,274.992C307.449,250.409 280.645,233.888 250,233.888C219.355,233.888 192.551,250.409 178.075,274.992L160.267,264.71Z" style="fill:rgb(33,104,105);"/>
    </g>
    <g transform="matrix(0.5,-0.866025,0.866025,0.5,-151.013,374.13)">
        <path d="M246.694,387.823C247.296,387.838 247.897,387.846 248.5,387.846L249.037,387.844C248.855,387.845 248.678,387.846 248.5,387.846C247.747,387.846 246.996,387.834 246.245,387.81L246.694,387.823ZM249.404,387.84L249.174,387.842L249.609,387.837L249.404,387.84ZM284.344,377.972C274.183,384.047 262.353,387.62 249.713,387.835C262.119,387.621 274.019,384.127 284.344,377.972ZM243.607,387.677C244.481,387.738 245.361,387.782 246.245,387.81C245.361,387.782 244.482,387.738 243.607,387.677ZM234.827,386.509C237.612,387.061 240.455,387.448 243.347,387.658C240.455,387.447 237.612,387.06 234.827,386.509ZM215.892,379.792C221.761,382.89 228.123,385.179 234.827,386.509C227.981,385.151 221.492,382.793 215.518,379.593L215.892,379.792ZM210.075,376.352L210.277,376.484L210.075,376.352L209.894,376.232L210.075,376.352ZM209.374,375.884L209.586,376.027L209.374,375.884L209.19,375.759L209.374,375.884ZM207.989,374.924C208.306,375.149 208.625,375.372 208.946,375.593C208.741,375.451 208.535,375.309 208.333,375.167L207.989,374.924ZM206.967,374.183L206.976,374.189L206.967,374.183L206.824,374.077L206.967,374.183ZM200.519,368.796C201.728,369.936 202.978,371.033 204.268,372.085C202.87,370.944 201.517,369.749 200.214,368.507L200.519,368.796ZM198.169,366.476C198.629,366.951 199.095,367.42 199.568,367.883C199.095,367.42 198.628,366.951 198.169,366.476ZM196.132,364.277C196.72,364.939 197.319,365.59 197.93,366.227C197.415,365.689 196.909,365.143 196.412,364.59L196.132,364.277ZM193.822,361.535C194.044,361.812 194.268,362.088 194.493,362.362L194.761,362.685C194.444,362.305 194.13,361.921 193.822,361.535ZM193.608,361.267L193.438,361.052L193.179,360.721C193.322,360.904 193.465,361.086 193.608,361.267ZM190.458,356.966L190.227,356.622L189.994,356.271C190.147,356.503 190.301,356.735 190.458,356.966ZM183.203,343.104C184.921,347.537 187.078,351.752 189.618,355.693C187.077,351.751 184.921,347.537 183.203,343.104ZM248.5,247.846C287.134,247.846 318.5,279.212 318.5,317.846C318.5,330.962 314.885,343.241 308.595,353.742C308.772,353.446 308.948,353.147 309.122,352.846L248.5,317.846L248.5,247.846ZM178.5,317.846C178.5,318.75 178.517,319.65 178.551,320.55C178.517,319.65 178.5,318.75 178.5,317.846ZM214.774,379.189C213.516,378.495 212.281,377.764 211.074,376.997C212.401,377.839 213.758,378.638 215.145,379.392L214.774,379.189ZM192.414,359.717C192.162,359.379 191.912,359.039 191.667,358.699L191.914,359.04C192.162,359.38 192.414,359.718 192.667,360.053L192.414,359.717ZM182.899,342.305C182.749,341.904 182.603,341.501 182.461,341.098C182.651,341.636 182.847,342.172 183.05,342.705L182.899,342.305ZM181.778,339.062C180.214,334.144 179.179,328.992 178.739,323.672C179.191,329.142 180.273,334.434 181.91,339.472L181.778,339.062Z" style="fill:rgb(33,104,105);"/>
    </g>
    <g transform="matrix(0.5,-0.866025,0.866025,0.5,-151.013,374.13)">
        <path d="M178.51,319.025C178.707,330.718 181.83,342.37 187.878,352.846L248.5,317.846L309.122,352.846C311.445,348.821 313.324,344.662 314.774,340.42C305.374,367.992 279.237,387.846 248.5,387.846C210.26,387.846 179.141,357.116 178.51,319.025ZM314.82,340.287L314.814,340.302L314.837,340.234L314.82,340.287ZM178.503,318.5L178.509,318.925L178.506,318.75L178.503,318.5ZM178.5,317.846L178.502,318.37L178.501,318.298L178.5,317.846ZM178.502,317.321L178.5,317.846L178.5,317.846C178.5,317.672 178.501,317.498 178.502,317.321ZM178.509,316.767L178.503,317.191L178.506,316.942L178.509,316.767ZM188.267,282.182C188.134,282.405 188.006,282.625 187.878,282.846C181.83,293.322 178.707,304.974 178.51,316.666C178.718,304.089 182.251,292.314 188.267,282.182ZM311.479,287.275C314.945,294.396 317.238,302.188 318.108,310.4C317.243,302.378 315,294.547 311.479,287.275ZM266.621,250.218C272.853,251.887 278.744,254.394 284.162,257.611C283.941,257.48 283.721,257.352 283.5,257.224C278.073,254.091 272.399,251.768 266.621,250.218ZM247.731,247.85C235.726,247.996 223.909,251.23 213.5,257.223C223.593,251.379 235.275,247.984 247.731,247.85Z" style="fill:rgb(220,225,222);"/>
    </g>
    <g transform="matrix(0.5,-0.866025,0.866025,0.5,-151.013,374.13)">
        <path d="M217.93,380.825C225.199,384.346 233.032,386.589 241.054,387.453C232.839,386.583 225.045,384.289 217.93,380.825ZM270.941,384.165L270.888,384.183L270.957,384.16L270.941,384.165ZM284.164,378.079C280.052,380.521 275.67,382.553 271.074,384.12C275.316,382.669 279.476,380.791 283.5,378.468C283.721,378.34 283.941,378.212 284.164,378.079ZM248.5,247.846L248.5,317.846L187.878,352.846C188.006,353.067 188.134,353.287 188.266,353.508C182.062,343.06 178.5,330.865 178.5,317.846C178.5,279.212 209.866,247.846 248.5,247.846ZM318.496,318.615C318.362,331.074 314.966,342.758 309.122,352.846C315.116,342.437 318.349,330.622 318.496,318.615ZM308.595,281.95C311.88,287.435 314.436,293.404 316.127,299.725C314.578,293.947 312.255,288.273 309.122,282.846C308.948,282.545 308.772,282.245 308.595,281.95ZM249.713,247.856C262.354,248.072 274.184,251.645 284.344,257.72C274.019,251.564 262.118,248.07 249.713,247.856ZM249.404,247.852L249.609,247.855L249.174,247.849L249.404,247.852ZM248.5,247.846L248.5,247.846C248.678,247.846 248.855,247.846 249.037,247.848L248.5,247.846Z" style="fill:rgb(73,160,120);"/>
    </g>
</svg>
